<mxfile host="app.diagrams.net" modified="2021-01-04T08:17:23.117Z" agent="5.0 (X11; Linux x86_64) AppleWebKit/537.36 (KHTML, like Gecko) Chrome/87.0.4280.88 Safari/537.36" etag="lNY9e6aqF6daTUkPL-qJ" version="13.8.0" type="github">
  <diagram id="1qmMv2oeAHjUiz6qux0p" name="Page-1">
    <mxGraphModel dx="1041" dy="494" grid="1" gridSize="10" guides="1" tooltips="1" connect="1" arrows="1" fold="1" page="1" pageScale="1" pageWidth="827" pageHeight="1169" math="0" shadow="0">
      <root>
        <mxCell id="0" />
        <mxCell id="1" parent="0" />
        <mxCell id="3pE9_Y5kMSjQkQBVXzXk-46" value="uom.uom.conversion" style="swimlane;childLayout=stackLayout;horizontal=1;startSize=30;horizontalStack=0;rounded=1;fontSize=14;fontStyle=0;strokeWidth=2;resizeParent=0;resizeLast=1;shadow=0;dashed=0;align=center;" vertex="1" parent="1">
          <mxGeometry x="230" y="70" width="160" height="120" as="geometry" />
        </mxCell>
        <mxCell id="3pE9_Y5kMSjQkQBVXzXk-47" value="+id&#xa;+uom_soruce_id&#xa;+uom_destination_id&#xa;+conversion_value" style="align=left;strokeColor=none;fillColor=none;spacingLeft=4;fontSize=12;verticalAlign=top;resizable=0;rotatable=0;part=1;" vertex="1" parent="3pE9_Y5kMSjQkQBVXzXk-46">
          <mxGeometry y="30" width="160" height="90" as="geometry" />
        </mxCell>
      </root>
    </mxGraphModel>
  </diagram>
</mxfile>
